<svg width="26" height="24" viewBox="0 0 26 24" fill="none" xmlns="http://www.w3.org/2000/svg"><path d="M12.8477 3.33982L13 3.51864L13.1523 3.33982C14.4781 1.78294 16.5106 0.797656 18.625 0.797656C22.3645 0.797656 25.3 3.73311 25.3 7.47266C25.3 9.76946 24.2689 11.8692 22.4155 14.1351C20.5608 16.4026 17.9037 18.8121 14.6832 21.7325L14.6782 21.737L14.6779 21.7373L12.9995 23.2652L11.322 21.7496L11.3216 21.7493L11.2831 21.7143C8.07781 18.8015 5.43277 16.3979 3.58454 14.1367C1.73115 11.8692 0.7 9.76946 0.7 7.47266C0.7 3.73311 3.63546 0.797656 7.375 0.797656C9.48944 0.797656 11.5219 1.78294 12.8477 3.33982ZM13.001 8.03512L12.0213 5.96855C11.3247 4.17759 9.37448 2.89766 7.375 2.89766C4.76454 2.89766 2.8 4.8622 2.8 7.47266C2.8 9.35273 3.8211 11.1931 5.5543 13.2183C7.28873 15.245 9.76722 17.491 12.7371 20.1801L12.8586 20.3016L13 20.443L13.1414 20.3016L13.2629 20.1801C16.2328 17.491 18.7113 15.245 20.4457 13.2183C22.1789 11.1931 23.2 9.35273 23.2 7.47266C23.2 4.8622 21.2355 2.89766 18.625 2.89766C16.6262 2.89766 14.6754 4.17699 13.991 5.96873L13.001 8.03512Z" fill="#060D21" stroke="white" stroke-width="0.4"></path></svg>